/* XPM */
static char *_c5d0a871fd0465ec98e34d1bcbc409cTf9fMdBX1rThISgc[] = {
/* columns rows colors chars-per-pixel */
"64 64 4 1 ",
"  c None",
". c #291800",
"X c #24272B",
"o c #4F3000",
/* pixels */
"                                                                ",
"                                                                ",
"                                                                ",
"                                                                ",
"                                                                ",
"                                                                ",
"                                                                ",
"                                                                ",
"                                                                ",
"                                                                ",
"                                                                ",
"                                                                ",
"                            XXXXXXXX                            ",
"                            XXXXXXXX                            ",
"                            XXXXXXXX                            ",
"                            XXXXXXXX                            ",
"                    XXXXXXXXXXXXXXXXXXXXXXXX                    ",
"                    XXXXXXXXXXXXXXXXXXXXXXXX                    ",
"                    XXXXXXXXXXXXXXXXXXXXXXXX                    ",
"                    XXXXXXXXXXXXXXXXXXXXXXXX                    ",
"            XXXXXXXXXXXXoooo....ooooooooXXXXXXXXXXXX            ",
"            XXXXXXXXXXXXoooo....ooooooooXXXXXXXXXXXX            ",
"            XXXXXXXXXXXXoooo....ooooooooXXXXXXXXXXXX            ",
"            XXXXXXXXXXXXoooo....ooooooooXXXXXXXXXXXX            ",
"            XXXXXXXXoooooooo....oooooooo....XXXXXXXX            ",
"            XXXXXXXXoooooooo....oooooooo....XXXXXXXX            ",
"            XXXXXXXXoooooooo....oooooooo....XXXXXXXX            ",
"            XXXXXXXXoooooooo....oooooooo....XXXXXXXX            ",
"        XXXXXXXX....oooooooo....oooooooo....ooooXXXXXXXX        ",
"        XXXXXXXX....oooooooo....oooooooo....ooooXXXXXXXX        ",
"        XXXXXXXX....oooooooo....oooooooo....ooooXXXXXXXX        ",
"        XXXXXXXX....oooooooo....oooooooo....ooooXXXXXXXX        ",
"    XXXXXXXXoooo....oooooooo....oooooooo....ooooooooXXXXXXXX    ",
"    XXXXXXXXoooo....oooooooo....oooooooo....ooooooooXXXXXXXX    ",
"    XXXXXXXXoooo....oooooooo....oooooooo....ooooooooXXXXXXXX    ",
"    XXXXXXXXoooo....oooooooo....oooooooo....ooooooooXXXXXXXX    ",
"    XXXXXXXXoooo....oooooooo....ooooooooXXXXooooooooXXXXXXXX    ",
"    XXXXXXXXoooo....oooooooo....ooooooooXXXXooooooooXXXXXXXX    ",
"    XXXXXXXXoooo....oooooooo....ooooooooXXXXooooooooXXXXXXXX    ",
"    XXXXXXXXoooo....oooooooo....ooooooooXXXXooooooooXXXXXXXX    ",
"        XXXXoooo....oooooooo....ooooooooXXXXooooooooXXXX        ",
"        XXXXoooo....oooooooo....ooooooooXXXXooooooooXXXX        ",
"        XXXXoooo....oooooooo....ooooooooXXXXooooooooXXXX        ",
"        XXXXoooo....oooooooo....ooooooooXXXXooooooooXXXX        ",
"        XXXXoooo....oooooooo....ooooXXXX....XXXXooooXXXX        ",
"        XXXXoooo....oooooooo....ooooXXXX....XXXXooooXXXX        ",
"        XXXXoooo....oooooooo....ooooXXXX....XXXXooooXXXX        ",
"        XXXXoooo....oooooooo....ooooXXXX....XXXXooooXXXX        ",
"    XXXXXXXXoooo....oooooooo....ooooXXXXXXXXXXXXooooXXXXXXXX    ",
"    XXXXXXXXoooo....oooooooo....ooooXXXXXXXXXXXXooooXXXXXXXX    ",
"    XXXXXXXXoooo....oooooooo....ooooXXXXXXXXXXXXooooXXXXXXXX    ",
"    XXXXXXXXoooo....oooooooo....ooooXXXXXXXXXXXXooooXXXXXXXX    ",
"    XXXXXXXXoooo....oooooooo....oooooooo....ooooooooXXXXXXXX    ",
"    XXXXXXXXoooo....oooooooo....oooooooo....ooooooooXXXXXXXX    ",
"    XXXXXXXXoooo....oooooooo....oooooooo....ooooooooXXXXXXXX    ",
"    XXXXXXXXoooo....oooooooo....oooooooo....ooooooooXXXXXXXX    ",
"        XXXXoooo....oooooooo....oooooooo....ooooooooXXXX        ",
"        XXXXoooo....oooooooo....oooooooo....ooooooooXXXX        ",
"        XXXXoooo....oooooooo....oooooooo....ooooooooXXXX        ",
"        XXXXoooo....oooooooo....oooooooo....ooooooooXXXX        ",
"        XXXXoooo....oooooooo....oooooooo....ooooooooXXXX        ",
"        XXXXoooo....oooooooo....oooooooo....ooooooooXXXX        ",
"        XXXXoooo....oooooooo....oooooooo....ooooooooXXXX        ",
"        XXXXoooo....oooooooo....oooooooo....ooooooooXXXX        "
};
