/* XPM */
static char *_dfe32e8e33046378dd0f824201bb5c92zmWP622SwI87uxi[] = {
/* columns rows colors chars-per-pixel */
"64 64 10 1 ",
"  c None",
". c #384224",
"X c #526035",
"o c #8C1825",
"O c #B11E2F",
"+ c #D12338",
"@ c #C16B55",
"# c #7B9150",
"$ c #FF9827",
"% c #FFB027",
/* pixels */
"                                                                ",
"                                                                ",
"                                                                ",
"                                                                ",
"                            @@@@                                ",
"                            @@@@                                ",
"                            @@@@                                ",
"                            @@@@                                ",
"                    @@@@@@@@++++++++                            ",
"                    @@@@@@@@++++++++                            ",
"                    @@@@@@@@++++++++                            ",
"                    @@@@@@@@++++++++                            ",
"                @@@@@@@@OOOO++++OOOOOOOO                        ",
"                @@@@@@@@OOOO++++OOOOOOOO                        ",
"                @@@@@@@@OOOO++++OOOOOOOO                        ",
"                @@@@@@@@OOOO++++OOOOOOOO                        ",
"            @@@@++++++++%%%%%%%%OOOOoooooooo                    ",
"            @@@@++++++++%%%%%%%%OOOOoooooooo                    ",
"            @@@@++++++++%%%%%%%%OOOOoooooooo                    ",
"            @@@@++++++++%%%%%%%%OOOOoooooooo                    ",
"                ++++OOOO%%%%$$$$OOOOoooo                        ",
"                ++++OOOO%%%%$$$$OOOOoooo                        ",
"                ++++OOOO%%%%$$$$OOOOoooo                        ",
"                ++++OOOO%%%%$$$$OOOOoooo                        ",
"            ++++OOOOOOOOOOOOOOOOoooo        ....########        ",
"            ++++OOOOOOOOOOOOOOOOoooo        ....########        ",
"            ++++OOOOOOOOOOOOOOOOoooo        ....########        ",
"            ++++OOOOOOOOOOOOOOOOoooo        ....########        ",
"                    oooooooooooo....    ....XXXXXXXX....        ",
"                    oooooooooooo....    ....XXXXXXXX....        ",
"                    oooooooooooo....    ....XXXXXXXX....        ",
"                    oooooooooooo....    ....XXXXXXXX....        ",
"                                    ....XXXXXXXX....            ",
"                                    ....XXXXXXXX....            ",
"                                    ....XXXXXXXX....            ",
"                                    ....XXXXXXXX....            ",
"                ########....        ............                ",
"                ########....        ............                ",
"                ########....        ............                ",
"                ########....        ............                ",
"                ....####XXXX....    ....                        ",
"                ....####XXXX....    ....                        ",
"                ....####XXXX....    ....                        ",
"                ....####XXXX....    ....                        ",
"                    ....XXXXXXXX........                        ",
"                    ....XXXXXXXX........                        ",
"                    ....XXXXXXXX........                        ",
"                    ....XXXXXXXX........                        ",
"                        ....XXXXXXXX....                        ",
"                        ....XXXXXXXX....                        ",
"                        ....XXXXXXXX....                        ",
"                        ....XXXXXXXX....                        ",
"                            ........                            ",
"                            ........                            ",
"                            ........                            ",
"                            ........                            ",
"                                ....                            ",
"                                ....                            ",
"                                ....                            ",
"                                ....                            ",
"                                ....                            ",
"                                ....                            ",
"                                ....                            ",
"                                ....                            "
};
