/* XPM */
static char *ecaa5ba0cf6d4bc0ded9c211878e4cb8hlDDEqZ9TTqvt1Gw[] = {
/* columns rows colors chars-per-pixel */
"64 64 14 1 ",
"  c None",
". c #433731",
"X c #433732",
"o c #443731",
"O c #443732",
"+ c #443831",
"@ c #443832",
"# c #745F54",
"$ c #755F54",
"% c #745F55",
"& c #755F55",
"* c #756054",
"= c #746055",
"- c #756055",
/* pixels */
"                    ++++++++++++++++++++++++                    ",
"                    ++++++++++++++++++++++++                    ",
"                    ++++++++++++++++++++++++                    ",
"                    ++++++++++++++++++++++++                    ",
"            ++++oooo++++++++++++++++oooo++++....++++            ",
"            ++++oooo++++++++++++++++oooo++++....++++            ",
"            ++++oooo++++++++++++++++oooo++++....++++            ",
"            ++++oooo++++++++++++++++oooo++++....++++            ",
"        ++++++++++++****&&&&&&&&&&&&****&&&&++++oooo++++        ",
"        ++++++++++++****&&&&&&&&&&&&****&&&&++++oooo++++        ",
"        ++++++++++++****&&&&&&&&&&&&****&&&&++++oooo++++        ",
"        ++++++++++++****&&&&&&&&&&&&****&&&&++++oooo++++        ",
"    oooo++++....&&&&++++....++++oooo++++....&&&&++++....++++    ",
"    oooo++++....&&&&++++....++++oooo++++....&&&&++++....++++    ",
"    oooo++++....&&&&++++....++++oooo++++....&&&&++++....++++    ",
"    oooo++++....&&&&++++....++++oooo++++....&&&&++++....++++    ",
"    oooooooo&&&&++++++++++++&&&&&&&&++++++++++++&&&&++++++++    ",
"    oooooooo&&&&++++++++++++&&&&&&&&++++++++++++&&&&++++++++    ",
"    oooooooo&&&&++++++++++++&&&&&&&&++++++++++++&&&&++++++++    ",
"    oooooooo&&&&++++++++++++&&&&&&&&++++++++++++&&&&++++++++    ",
"....++++****............&&&&&&&&****&&&&++++....++++&&&&++++++++",
"....++++****............&&&&&&&&****&&&&++++....++++&&&&++++++++",
"....++++****............&&&&&&&&****&&&&++++....++++&&&&++++++++",
"....++++****............&&&&&&&&****&&&&++++....++++&&&&++++++++",
"++++++++&&&&oooo++++&&&&&&&&++++....&&&&&&&&++++++++&&&&++++++++",
"++++++++&&&&oooo++++&&&&&&&&++++....&&&&&&&&++++++++&&&&++++++++",
"++++++++&&&&oooo++++&&&&&&&&++++....&&&&&&&&++++++++&&&&++++++++",
"++++++++&&&&oooo++++&&&&&&&&++++....&&&&&&&&++++++++&&&&++++++++",
"++++++++&&&&++++&&&&&&&&++++++++++++++++********++++****++++++++",
"++++++++&&&&++++&&&&&&&&++++++++++++++++********++++****++++++++",
"++++++++&&&&++++&&&&&&&&++++++++++++++++********++++****++++++++",
"++++++++&&&&++++&&&&&&&&++++++++++++++++********++++****++++++++",
"++++....****....****&&&&++++....++++++++&&&&&&&&....&&&&........",
"++++....****....****&&&&++++....++++++++&&&&&&&&....&&&&........",
"++++....****....****&&&&++++....++++++++&&&&&&&&....&&&&........",
"++++....****....****&&&&++++....++++++++&&&&&&&&....&&&&........",
"++++++++&&&&++++++++********++++++++&&&&&&&&++++++++&&&&++++++++",
"++++++++&&&&++++++++********++++++++&&&&&&&&++++++++&&&&++++++++",
"++++++++&&&&++++++++********++++++++&&&&&&&&++++++++&&&&++++++++",
"++++++++&&&&++++++++********++++++++&&&&&&&&++++++++&&&&++++++++",
"++++....&&&&++++....++++&&&&&&&&&&&&&&&&++++++++....****++++oooo",
"++++....&&&&++++....++++&&&&&&&&&&&&&&&&++++++++....****++++oooo",
"++++....&&&&++++....++++&&&&&&&&&&&&&&&&++++++++....****++++oooo",
"++++....&&&&++++....++++&&&&&&&&&&&&&&&&++++++++....****++++oooo",
"&&&&++++++++&&&&++++++++++++&&&&&&&&....++++....&&&&++++....&&&&",
"&&&&++++++++&&&&++++++++++++&&&&&&&&....++++....&&&&++++....&&&&",
"&&&&++++++++&&&&++++++++++++&&&&&&&&....++++....&&&&++++....&&&&",
"&&&&++++++++&&&&++++++++++++&&&&&&&&....++++....&&&&++++....&&&&",
"&&&&++++++++++++&&&&++++++++++++++++++++oooo&&&&oooo........&&&&",
"&&&&++++++++++++&&&&++++++++++++++++++++oooo&&&&oooo........&&&&",
"&&&&++++++++++++&&&&++++++++++++++++++++oooo&&&&oooo........&&&&",
"&&&&++++++++++++&&&&++++++++++++++++++++oooo&&&&oooo........&&&&",
"&&&&&&&&....++++++++****&&&&&&&&&&&&&&&&&&&&++++++++++++&&&&&&&&",
"&&&&&&&&....++++++++****&&&&&&&&&&&&&&&&&&&&++++++++++++&&&&&&&&",
"&&&&&&&&....++++++++****&&&&&&&&&&&&&&&&&&&&++++++++++++&&&&&&&&",
"&&&&&&&&....++++++++****&&&&&&&&&&&&&&&&&&&&++++++++++++&&&&&&&&",
"    &&&&&&&&....++++++++....++++++++++++++++........&&&&&&&&    ",
"    &&&&&&&&....++++++++....++++++++++++++++........&&&&&&&&    ",
"    &&&&&&&&....++++++++....++++++++++++++++........&&&&&&&&    ",
"    &&&&&&&&....++++++++....++++++++++++++++........&&&&&&&&    ",
"        &&&&&&&&&&&&++++++++++++++++++++++++&&&&&&&&&&&&        ",
"        &&&&&&&&&&&&++++++++++++++++++++++++&&&&&&&&&&&&        ",
"        &&&&&&&&&&&&++++++++++++++++++++++++&&&&&&&&&&&&        ",
"        &&&&&&&&&&&&++++++++++++++++++++++++&&&&&&&&&&&&        "
};
