/* XPM */
static char *_f49aca8f3434fa4fb9a4fde6bcbf757iR2zRfOSRDqIBlYn[] = {
/* columns rows colors chars-per-pixel */
"64 64 32 1 ",
"  c None",
". c #443831",
"X c #443832",
"o c #2E556F",
"O c #2E566F",
"+ c #2F566F",
"@ c #2E5570",
"# c #2E5670",
"$ c #2F5670",
"% c #444444",
"& c #454444",
"* c #444544",
"= c #444445",
"- c #444545",
"; c #4B7579",
": c #4A757A",
"> c #4B757A",
", c #4B767A",
"< c #5B81A1",
"1 c #5B81A2",
"2 c #5C82A1",
"3 c #5C81A2",
"4 c #5C82A2",
"5 c #B9B9D0",
"6 c #B8B8D1",
"7 c #B9B8D1",
"8 c #B8B9D1",
"9 c #B9B9D1",
"0 c #9AC1C7",
"q c #9BC2C7",
"w c #9AC1C8",
"e c #9BC2C8",
/* pixels */
"                OOOOOOOO$$$$                                    ",
"                OOOOOOOO$$$$                                    ",
"                OOOOOOOO$$$$                                    ",
"                OOOOOOOO$$$$                                    ",
"            OOOO3333111133331111                                ",
"            OOOO3333111133331111                                ",
"            OOOO3333111133331111                                ",
"            OOOO3333111133331111                                ",
"        OOOO333333331111111111111111        99999999            ",
"        OOOO333333331111111111111111        99999999            ",
"        OOOO333333331111111111111111        99999999            ",
"        OOOO333333331111111111111111        99999999            ",
"        1111&&&&9999$$$$9999$$$$9999&&&&9999        9999        ",
"        1111&&&&9999$$$$9999$$$$9999&&&&9999        9999        ",
"        1111&&&&9999$$$$9999$$$$9999&&&&9999        9999        ",
"        1111&&&&9999$$$$9999$$$$9999&&&&9999        9999        ",
"        1111&&&&99999999999999999999&&&&9999                    ",
"        1111&&&&99999999999999999999&&&&9999                    ",
"        1111&&&&99999999999999999999&&&&9999                    ",
"        1111&&&&99999999999999999999&&&&9999                    ",
"                &&&&............&&&&        9999                ",
"                &&&&............&&&&        9999                ",
"                &&&&............&&&&        9999                ",
"                &&&&............&&&&        9999                ",
"                    $$$$eeee$$$$$$$$        ....                ",
"                    $$$$eeee$$$$$$$$        ....                ",
"                    $$$$eeee$$$$$$$$        ....                ",
"                    $$$$eeee$$$$$$$$        ....                ",
"                $$$$&&&&qqqq&&&&OOOO        9999                ",
"                $$$$&&&&qqqq&&&&OOOO        9999                ",
"                $$$$&&&&qqqq&&&&OOOO        9999                ",
"                $$$$&&&&qqqq&&&&OOOO        9999                ",
"            $$$$&&&&eeeeqqqqqqqq&&&&&&&&&%&&....                ",
"            $$$$&&&&eeeeqqqqqqqq&&&&&&&&&&&&....                ",
"            $$$$&&&&eeeeqqqqqqqq&&&&&&&&%&&&....                ",
"            $$$$&&&&eeeeqqqqqqqq&&&&&&&&&&&&....                ",
"        $$$$&&&&,,,,qqqq,,,,qqqq,,,,$$$$    ....                ",
"        $$$$&&&&,,,,qqqq,,,,qqqq,,,,$$$$    ....                ",
"        $$$$&&&&,,,,qqqq,,,,qqqq,,,,$$$$    ....                ",
"        $$$$&&&&,,,,qqqq,,,,qqqq,,,,$$$$    ....                ",
"    9999&&&&$$$$,,,,qqqqqqqqqqqq,,,,$$$$                        ",
"    9999&&&&$$$$,,,,qqqqqqqqqqqq,,,,$$$$                        ",
"    9999&&&&$$$$,,,,qqqqqqqqqqqq,,,,$$$$                        ",
"    9999&&&&$$$$,,,,qqqqqqqqqqqq,,,,$$$$                        ",
"    &&&&$$$$$$$$,,,,qqqq,,,,qqqq,,,,$$$$                        ",
"    &&&&$$$$$$$$,,,,qqqq,,,,qqqq,,,,$$$$                        ",
"    &&&&$$$$$$$$,,,,qqqq,,,,qqqq,,,,$$$$                        ",
"    &&&&$$$$$$$$,,,,qqqq,,,,qqqq,,,,$$$$                        ",
"    $$$$OOOO$$$$,,,,qqqqqqqqqqqq,,,,$$$$$$$$                    ",
"    $$$$OOOO$$$$,,,,qqqqqqqqqqqq,,,,$$$$$$$$                    ",
"    $$$$OOOO$$$$,,,,qqqqqqqqqqqq,,,,$$$$$$$$                    ",
"    $$$$OOOO$$$$,,,,qqqqqqqqqqqq,,,,$$$$$$$$                    ",
"    $$$$$$$$$$$$,,,,eeeeqqqqqqqq,,,,OOOO$$$$                    ",
"    $$$$$$$$$$$$,,,,eeeeqqqqqqqq,,,,OOOO$$$$                    ",
"    $$$$$$$$$$$$,,,,eeeeqqqqqqqq,,,,OOOO$$$$                    ",
"    $$$$$$$$$$$$,,,,eeeeqqqqqqqq,,,,OOOO$$$$                    ",
"                    ,,,,        ,,,,                            ",
"                    ,,,,        ,,,,                            ",
"                    ,,,,        ,,,,                            ",
"                    ,,,,        ,,,,                            ",
"                    &&&&&&&&    &&&&&&&&                        ",
"                    &&&&&&&&    &&&&&&&&                        ",
"                    &&&&&&&&    &&&&&&&&                        ",
"                    &&&&&&&&    &&&&&&&&                        "
};
