/* XPM */
static char *_5afd219bd044b548bf336cbd0f0ed5bRUzcPVHQ96vtlNBp[] = {
/* columns rows colors chars-per-pixel */
"64 64 10 1 ",
"  c #6B7E43",
". c #6C7D43",
"X c #6B7D44",
"o c #6C7D44",
"O c #A0B76F",
"+ c #A1B76F",
"@ c #A1B86E",
"# c #A0B86F",
"$ c #A9BE7B",
"% c #AABE7C",
/* pixels */
"++++++++++++++++++++++++++++++++++++@@@@++++@@@@++++@@@@++++@@@@",
"++++++++++++++++++++++++++++++++++++@@@@++++@@@@++++@@@@++++@@@@",
"++++++++++++++++++++++++++++++++++++@@@@++++@@@@++++@@@@++++@@@@",
"++++++++++++++++++++++++++++++++++++@@@@++++@@@@++++@@@@++++@@@@",
"++++++++++++++++++++++++++++++++++++++++@@@@++++@@@@++++....++++",
"++++++++++++++++++++++++++++++++++++++++@@@@++++@@@@++++....++++",
"++++++++++++++++++++++++++++++++++++++++@@@@++++@@@@++++....++++",
"++++++++++++++++++++++++++++++++++++++++@@@@++++@@@@++++....++++",
"++++++++@@@@++++@@@@++++++++++++@@@@@@@@@@@@@@@@++++    ++++@@@@",
"++++++++@@@@++++@@@@++++++++++++@@@@@@@@@@@@@@@@++++    ++++@@@@",
"++++++++@@@@++++@@@@++++++++++++@@@@@@@@@@@@@@@@++++    ++++@@@@",
"++++++++@@@@++++@@@@++++++++++++@@@@@@@@@@@@@@@@++++    ++++@@@@",
"++++++++++++++++@@@@@@@@@@@@++++@@@@++++++++    ++++    ++++++++",
"++++++++++++++++@@@@@@@@@@@@++++@@@@++++++++    ++++    ++++++++",
"++++++++++++++++@@@@@@@@@@@@++++@@@@++++++++    ++++    ++++++++",
"++++++++++++++++@@@@@@@@@@@@++++@@@@++++++++    ++++    ++++++++",
"++++@@@@++++@@@@++++++++@@@@++++++++@@@@++++++++++++++++++++++++",
"++++@@@@++++@@@@++++++++@@@@++++++++@@@@++++++++++++++++++++++++",
"++++@@@@++++@@@@++++++++@@@@++++++++@@@@++++++++++++++++++++++++",
"++++@@@@++++@@@@++++++++@@@@++++++++@@@@++++++++++++++++++++++++",
"++++++++++++%%%%@@@@++++@@@@@@@@++++++++++++@@@@++++@@@@@@@@++++",
"++++++++++++%%%%@@@@++++@@@@@@@@++++++++++++@@@@++++@@@@@@@@++++",
"++++++++++++%%%%@@@@++++@@@@@@@@++++++++++++@@@@++++@@@@@@@@++++",
"++++++++++++%%%%@@@@++++@@@@@@@@++++++++++++@@@@++++@@@@@@@@++++",
"++++++++oooo$$$$++++@@@@++++++++@@@@@@@@++++++++++++@@@@++++++++",
"++++++++oooo$$$$++++@@@@++++++++@@@@@@@@++++++++++++@@@@++++++++",
"++++++++oooo$$$$++++@@@@++++++++@@@@@@@@++++++++++++@@@@++++++++",
"++++++++oooo$$$$++++@@@@++++++++@@@@@@@@++++++++++++@@@@++++++++",
"++++++++++++XXXX++++    ++++++++@@@@++++++++++++@@@@@@@@++++++++",
"++++++++++++XXXX++++    ++++++++@@@@++++++++++++@@@@@@@@++++++++",
"++++++++++++XXXX++++    ++++++++@@@@++++++++++++@@@@@@@@++++++++",
"++++++++++++XXXX++++    ++++++++@@@@++++++++++++@@@@@@@@++++++++",
"++++++++++++    ++++....++++++++@@@@@@@@@@@@@@@@@@@@++++@@@@++++",
"++++++++++++    ++++....++++++++@@@@@@@@@@@@@@@@@@@@++++@@@@++++",
"++++++++++++    ++++....++++++++@@@@@@@@@@@@@@@@@@@@++++@@@@++++",
"++++++++++++    ++++....++++++++@@@@@@@@@@@@@@@@@@@@++++@@@@++++",
"@@@@@@@@++++++++@@@@@@@@++++++++++++++++++++++++@@@@++++++++++++",
"@@@@@@@@++++++++@@@@@@@@++++++++++++++++++++++++@@@@++++++++++++",
"@@@@@@@@++++++++@@@@@@@@++++++++++++++++++++++++@@@@++++++++++++",
"@@@@@@@@++++++++@@@@@@@@++++++++++++++++++++++++@@@@++++++++++++",
"++++@@@@++++++++++++++++++++XXXX++++++++++++@@@@++++++++++++++++",
"++++@@@@++++++++++++++++++++XXXX++++++++++++@@@@++++++++++++++++",
"++++@@@@++++++++++++++++++++XXXX++++++++++++@@@@++++++++++++++++",
"++++@@@@++++++++++++++++++++XXXX++++++++++++@@@@++++++++++++++++",
"@@@@++++@@@@++++@@@@++++@@@@oooo$$$$++++++++@@@@++++%%%%%%%%....",
"@@@@++++@@@@++++@@@@++++@@@@oooo$$$$++++++++@@@@++++%%%%%%%%....",
"@@@@++++@@@@++++@@@@++++@@@@oooo$$$$++++++++@@@@++++%%%%%%%%....",
"@@@@++++@@@@++++@@@@++++@@@@oooo$$$$++++++++@@@@++++%%%%%%%%....",
"++++++++@@@@++++++++++++++++++++++++@@@@++++++++    %%%%    ++++",
"++++++++@@@@++++++++++++++++++++++++@@@@++++++++    %%%%    ++++",
"++++++++@@@@++++++++++++++++++++++++@@@@++++++++    %%%%    ++++",
"++++++++@@@@++++++++++++++++++++++++@@@@++++++++    %%%%    ++++",
"++++++++@@@@++++++++++++@@@@++++++++@@@@++++@@@@XXXX++++    ++++",
"++++++++@@@@++++++++++++@@@@++++++++@@@@++++@@@@XXXX++++    ++++",
"++++++++@@@@++++++++++++@@@@++++++++@@@@++++@@@@XXXX++++    ++++",
"++++++++@@@@++++++++++++@@@@++++++++@@@@++++@@@@XXXX++++    ++++",
"++++++++++++@@@@++++++++@@@@@@@@++++++++++++++++++++@@@@++++++++",
"++++++++++++@@@@++++++++@@@@@@@@++++++++++++++++++++@@@@++++++++",
"++++++++++++@@@@++++++++@@@@@@@@++++++++++++++++++++@@@@++++++++",
"++++++++++++@@@@++++++++@@@@@@@@++++++++++++++++++++@@@@++++++++",
"++++++++++++@@@@++++++++++++++++++++++++++++++++++++++++++++++++",
"++++++++++++@@@@++++++++++++++++++++++++++++++++++++++++++++++++",
"++++++++++++@@@@++++++++++++++++++++++++++++++++++++++++++++++++",
"++++++++++++@@@@++++++++++++++++++++++++++++++++++++++++++++++++"
};
